<svg width="28px" height="28px" fill="#000000" viewBox="0 0 270.92 270.92" style="shape-rendering:geometricPrecision; text-rendering:geometricPrecision; image-rendering:optimizeQuality; fill-rule:evenodd; clip-rule:evenodd" version="1.1" xml:space="preserve" xmlns="http://www.w3.org/2000/svg" xmlns:xlink="http://www.w3.org/1999/xlink" stroke="#000000" stroke-width="2.7092">
  <g id="SVGRepo_bgCarrier" stroke-width="0"></g>
  <g id="SVGRepo_tracerCarrier" stroke-linecap="round" stroke-linejoin="round"></g>
  <g id="SVGRepo_iconCarrier">
    <defs>
      <style type="text/css">
        .fil0 {
          fill: black;
          fill-rule: nonzero
        }
      </style>
    </defs>
    <g id="Layer_x0020_1">
      <path class="fil0" d="M202.48 214.83c0,8.75 -7.11,15.85 -15.85,15.85l-102.33 0c-8.75,0 -15.85,-7.1 -15.85,-15.85l0 -158.75c0,-8.74 7.1,-15.85 15.85,-15.85l102.33 0c8.74,0 15.85,7.11 15.85,15.85l0 158.75zm-22.2 -104.84l-36.59 0c-1.95,0 -3.53,1.58 -3.53,3.53 0,1.95 1.58,3.52 3.53,3.52l36.59 0c1.94,0 3.53,-1.57 3.53,-3.52 0,-1.95 -1.59,-3.53 -3.53,-3.53zm0 -23.43l-36.59 0c-1.95,0 -3.53,1.57 -3.53,3.52 0,1.95 1.58,3.52 3.53,3.52l36.59 0c1.94,0 3.53,-1.57 3.53,-3.52 0,-1.95 -1.59,-3.52 -3.53,-3.52zm0 -23.18l-36.59 0c-1.95,0 -3.53,1.58 -3.53,3.53 0,1.93 1.58,3.51 3.53,3.51l36.59 0c1.94,0 3.53,-1.58 3.53,-3.51 0,-1.95 -1.59,-3.53 -3.53,-3.53zm-44.82 137.11l-44.81 0c-1.95,0 -3.53,1.58 -3.53,3.53 0,1.95 1.58,3.53 3.53,3.53l44.81 0c1.95,0 3.53,-1.58 3.53,-3.53 0,-1.95 -1.58,-3.53 -3.53,-3.53zm44.82 -21.37l-89.63 0c-1.95,0 -3.53,1.57 -3.53,3.52 0,1.95 1.58,3.52 3.53,3.52l89.63 0c1.94,0 3.53,-1.57 3.53,-3.52 0,-1.95 -1.59,-3.52 -3.53,-3.52zm0 -22.28l-89.63 0c-1.95,0 -3.53,1.58 -3.53,3.53 0,1.95 1.58,3.52 3.53,3.52l89.63 0c1.94,0 3.53,-1.57 3.53,-3.52 0,-1.95 -1.59,-3.53 -3.53,-3.53zm0 -22.93l-89.63 0c-1.95,0 -3.53,1.58 -3.53,3.54 0,1.94 1.58,3.53 3.53,3.53l89.63 0c1.94,0 3.53,-1.59 3.53,-3.53 0,-1.96 -1.59,-3.54 -3.53,-3.54zm-86.11 -63.49l28.33 0 0 39.57 -28.33 0 0 -39.57zm-3.52 46.62l35.38 0c1.95,0 3.52,-1.57 3.52,-3.52l0 -46.61c0,-1.95 -1.57,-3.53 -3.52,-3.53l-35.38 0c-1.95,0 -3.53,1.58 -3.53,3.53l0 46.61c0,1.95 1.58,3.52 3.53,3.52zm95.98 -83.86l-102.33 0c-12.64,0 -22.91,10.26 -22.91,22.9l0 158.75c0,12.64 10.27,22.91 22.91,22.91l102.33 0c12.61,0 22.9,-10.27 22.9,-22.91l0 -158.75c0,-12.64 -10.29,-22.9 -22.9,-22.9z"></path>
    </g>
  </g>
</svg>