<svg height="26px" width="26px" xmlns="http://www.w3.org/2000/svg" aria-hidden="true" data-name="Layer 1" viewBox="0 0 24 24" role="img">
  <circle cx="12" cy="12" r="3.5" fill="none" vector-effect="non-scaling-stroke" stroke="var(--icon-color, #001e00)" stroke-linecap="round" stroke-linejoin="round" stroke-width="1.5"></circle>
  <path fill="none" vector-effect="non-scaling-stroke" stroke="var(--icon-color, #001e00)" stroke-linecap="round" stroke-linejoin="round" stroke-width="1.5" d="M18.25 12.62v-1.24h0l2.36-2a9 9 0 00-2.18-3.67l-2.89 1.1h0a6.89 6.89 0 00-.88-.5h0l-.52-3a8.62 8.62 0 00-4.28 0l-.52 3h0a6.89 6.89 0 00-.88.5l-2.89-1.1a9 9 0 00-2.18 3.67l2.36 2a6.22 6.22 0 000 1.22l-2.36 2a9 9 0 002.18 3.67l2.89-1.1a6.89 6.89 0 00.88.5h0l.52 3a8.62 8.62 0 004.28 0l.52-3h0a6.89 6.89 0 00.88-.5h0l2.89 1.1a9 9 0 002.18-3.67l-2.36-2z"></path>
</svg>